<svg width="24" height="24" viewBox="0 0 24 24" fill="none" xmlns="http://www.w3.org/2000/svg">
<path d="M18 22H4V4H14L18 8V22Z" fill="#42A5F5"/>
<path d="M20 20H6V2H16L20 6V20Z" fill="#90CAF9"/>
<path d="M19.25 6.5H15.5V2.75L19.25 6.5Z" fill="#E1F5FE"/>
<path d="M11.7 14.95C11.7 14.85 11.7 14.75 11.75 14.65C11.8 14.55 11.85 14.5 11.9 14.4C11.95 14.3 12.05 14.3 12.15 14.25C12.25 14.2 12.35 14.2 12.45 14.2C12.55 14.2 12.7 14.2 12.8 14.25C12.9 14.3 13 14.35 13.05 14.4C13.1 14.45 13.15 14.55 13.2 14.65C13.25 14.75 13.25 14.85 13.25 14.95C13.25 15.05 13.25 15.15 13.2 15.25C13.15 15.35 13.1 15.4 13.05 15.5C13 15.6 12.9 15.6 12.8 15.65C12.7 15.7 12.6 15.7 12.45 15.7C12.3 15.7 12.2 15.7 12.15 15.65C12.1 15.6 11.95 15.55 11.9 15.5C11.85 15.45 11.8 15.35 11.75 15.25C11.7 15.15 11.7 15.05 11.7 14.95ZM13.05 13.4H11.9L11.7 8.5H13.2L13.05 13.4Z" fill="#1976D2"/>
</svg>
