<svg width="94" height="114" viewBox="0 0 94 114" fill="none" xmlns="http://www.w3.org/2000/svg">
<rect x="2.5" y="2.5" width="89" height="109" stroke="#EFEDED" stroke-width="5"/>
<path d="M5 79C5 51.938 26.938 30 54 30H64.5C78.031 30 89 40.969 89 54.5V79H5Z" fill="#F4F0E2"/>
<path d="M5 54.5C5 40.969 15.969 30 29.5 30H47V79H5V54.5Z" fill="#FFFDEF"/>
<path d="M24.0224 29.3656C23.5965 19.2606 29.3462 10.9115 32.2743 8C38.0239 14.9875 39.8163 25.1552 39.9937 29.3656C40.2067 36.9981 34.9361 46.9688 32.2743 51C25.6728 46.3775 24.0224 34.651 24.0224 29.3656Z" fill="#929088"/>
<path d="M24.0217 29.3656C23.6099 19.2606 29.169 10.9115 32 8V51C25.6173 46.3775 24.0217 34.651 24.0217 29.3656Z" fill="#C2BB9D"/>
<path d="M53.0224 29.3656C52.5965 19.2606 58.3462 10.9115 61.2743 8C67.0239 14.9875 68.8163 25.1552 68.9937 29.3656C69.2067 36.9981 63.9361 46.9688 61.2743 51C54.6728 46.3775 53.0224 34.651 53.0224 29.3656Z" fill="#C2BB9D"/>
<path d="M53.0217 29.3656C52.6099 19.2606 58.169 10.9115 61 8V51C54.6173 46.3775 53.0217 34.651 53.0217 29.3656Z" fill="#938E7C"/>
<rect x="13" y="41" width="66" height="27" rx="13.5" fill="#AEAB9F"/>
<path d="M13 55C13 47.268 19.268 41 27 41H65C72.732 41 79 47.268 79 55H13Z" fill="#C2BB9D"/>
<path d="M47 75L41.8038 63.75L52.1962 63.75L47 75Z" fill="#7C7474"/>
<circle cx="28" cy="55" r="6" fill="#3A3333"/>
<circle cx="63" cy="54" r="6" fill="#3A3333"/>
<path d="M32 30H61V52.5C61 60.5081 54.5081 67 46.5 67C38.4919 67 32 60.5081 32 52.5V30Z" fill="#938E7C"/>
<path d="M40 30H53V54.5C53 58.0899 50.0899 61 46.5 61C42.9101 61 40 58.0899 40 54.5V30Z" fill="#D0CCBB"/>
<path d="M32 30H47V67C38.7157 67 32 60.2843 32 52V30Z" fill="#929088"/>
<path d="M40 30H47V61C43.134 61 40 57.866 40 54V30Z" fill="#C0BDB5"/>
<path d="M7.98047 100.484C7.98047 101.109 8.27344 101.422 8.85938 101.422H10.0312C10.6172 101.422 10.9102 101.109 10.9102 100.484V89.7031H16.1836V101.656C16.1836 103.375 14.9141 104.234 12.375 104.234H6.51562C3.97656 104.234 2.70703 103.375 2.70703 101.656V99.0781H7.98047V100.484ZM33.7617 89.7031H39.0352V100.484C39.0352 101.109 39.3281 101.422 39.9141 101.422C40.5 101.422 40.793 101.109 40.793 100.484V89.7266L46.0664 89.7031V101.656C46.0664 103.375 44.7969 104.234 42.2578 104.234H37.5703C37.0859 104.234 36.6953 104.086 36.3984 103.789C36.1016 104.086 35.7109 104.234 35.2266 104.234H30.5391C28 104.234 26.7305 103.375 26.7305 101.656V89.7031H32.0039V100.484C32.0039 101.109 32.2969 101.422 32.8828 101.422C33.4688 101.422 33.7617 101.109 33.7617 100.484V89.7031ZM56.9062 89.7031C59.4453 89.7031 60.7148 90.5625 60.7148 92.2812V104.234H55.4414V98.375H52.5117V104.234H47.2383V92.2812C47.2383 90.5625 48.5078 89.7031 51.0469 89.7031H56.9062ZM53.3906 92.5156C52.8047 92.5156 52.5117 92.8281 52.5117 93.4531V95.5625H55.4414V93.4531C55.4414 92.8281 55.1484 92.5156 54.5625 92.5156H53.3906ZM67.1602 104.234H61.8867V89.7031H71.5547C74.0938 89.7031 75.3633 90.5625 75.3633 92.2812V104.234H70.0898V93.4531C70.0898 92.8281 69.7969 92.5156 69.2109 92.5156H67.1602V104.234ZM80.3438 104.234C77.8047 104.234 76.5352 103.375 76.5352 101.656V92.2812C76.5352 90.5625 77.8047 89.7031 80.3438 89.7031H86.2031C88.7422 89.7031 90.0117 90.5625 90.0117 92.2812V93.6875H84.7383C84.7383 92.9062 84.4453 92.5156 83.8594 92.5156H82.6875C82.1016 92.5156 81.8086 92.8281 81.8086 93.4531V100.484C81.8086 101.109 82.1016 101.422 82.6875 101.422H84.7383V98.375H82.9805V95.5625H90.0117V104.234H80.3438Z" fill="#EFEDED"/>
</svg>
